<svg
  xmlns="http://www.w3.org/2000/svg"
  viewBox="-0.836882650556106 -60.99999999999988 976.6737653011123 731.9999999999999"
  role="img"
  lang="en"
  aria-label="Oregon with custom projection"
  class="w-full h-auto block bg-white">
  <title>
    Oregon (Custom Projection)
  </title>
  <desc>
    Map of Oregon using Lambert Conformal Conic projection centered on the state's centroid. This custom projection provides better orientation for single-state rendering compared to Albers USA. Data from US Census Bureau.
  </desc>
  <metadata data-type="application/jim+json">
    {"version":{"jim": "1.0.0"},"datasets":[{"title":"Oregon Map (Custom Projection)","description":"Map of Oregon using Lambert Conformal Conic projection centered on the state's centroid","representation":{"type":"map","projection":"lambert-conformal-conic"},"facets":{"name":{"label":"Geographic Name","variableType":"independent","measure":"nominal"}},"items":{"states":[{"id":"state-41","name":"Oregon","fips":"41","counties":[{"id":"county-41021","name":"Gilliam","fips":"41021"},{"id":"county-41023","name":"Grant","fips":"41023"},{"id":"county-41033","name":"Josephine","fips":"41033"},{"id":"county-41001","name":"Baker","fips":"41001"},{"id":"county-41015","name":"Curry","fips":"41015"},{"id":"county-41043","name":"Linn","fips":"41043"},{"id":"county-41047","name":"Marion","fips":"41047"},{"id":"county-41037","name":"Lake","fips":"41037"},{"id":"county-41009","name":"Columbia","fips":"41009"},{"id":"county-41025","name":"Harney","fips":"41025"},{"id":"county-41049","name":"Morrow","fips":"41049"},{"id":"county-41003","name":"Benton","fips":"41003"},{"id":"county-41039","name":"Lane","fips":"41039"},{"id":"county-41031","name":"Jefferson","fips":"41031"},{"id":"county-41071","name":"Yamhill","fips":"41071"},{"id":"county-41017","name":"Deschutes","fips":"41017"},{"id":"county-41007","name":"Clatsop","fips":"41007"},{"id":"county-41035","name":"Klamath","fips":"41035"},{"id":"county-41011","name":"Coos","fips":"41011"},{"id":"county-41019","name":"Douglas","fips":"41019"},{"id":"county-41005","name":"Clackamas","fips":"41005"},{"id":"county-41053","name":"Polk","fips":"41053"},{"id":"county-41051","name":"Multnomah","fips":"41051"},{"id":"county-41041","name":"Lincoln","fips":"41041"},{"id":"county-41063","name":"Wallowa","fips":"41063"},{"id":"county-41045","name":"Malheur","fips":"41045"},{"id":"county-41065","name":"Wasco","fips":"41065"},{"id":"county-41027","name":"Hood River","fips":"41027"},{"id":"county-41067","name":"Washington","fips":"41067"},{"id":"county-41069","name":"Wheeler","fips":"41069"},{"id":"county-41057","name":"Tillamook","fips":"41057"},{"id":"county-41061","name":"Union","fips":"41061"},{"id":"county-41013","name":"Crook","fips":"41013"},{"id":"county-41059","name":"Umatilla","fips":"41059"},{"id":"county-41055","name":"Sherman","fips":"41055"},{"id":"county-41029","name":"Jackson","fips":"41029"}]}]},"series":[],"source":{"provider":"US Census Bureau","dataset":"us-atlas (TopoJSON)","url":"https://github.com/topojson/us-atlas"}}],"selectors":{"gilliam_41":{"dom":"path[data-id='county-41021']","json":"$.datasets[0].items.states[0].counties[0]","note":"Gilliam, Oregon"},"grant_41":{"dom":"path[data-id='county-41023']","json":"$.datasets[0].items.states[0].counties[1]","note":"Grant, Oregon"},"josephine_41":{"dom":"path[data-id='county-41033']","json":"$.datasets[0].items.states[0].counties[2]","note":"Josephine, Oregon"},"baker_41":{"dom":"path[data-id='county-41001']","json":"$.datasets[0].items.states[0].counties[3]","note":"Baker, Oregon"},"curry_41":{"dom":"path[data-id='county-41015']","json":"$.datasets[0].items.states[0].counties[4]","note":"Curry, Oregon"},"linn_41":{"dom":"path[data-id='county-41043']","json":"$.datasets[0].items.states[0].counties[5]","note":"Linn, Oregon"},"marion_41":{"dom":"path[data-id='county-41047']","json":"$.datasets[0].items.states[0].counties[6]","note":"Marion, Oregon"},"lake_41":{"dom":"path[data-id='county-41037']","json":"$.datasets[0].items.states[0].counties[7]","note":"Lake, Oregon"},"columbia_41":{"dom":"path[data-id='county-41009']","json":"$.datasets[0].items.states[0].counties[8]","note":"Columbia, Oregon"},"harney_41":{"dom":"path[data-id='county-41025']","json":"$.datasets[0].items.states[0].counties[9]","note":"Harney, Oregon"},"morrow_41":{"dom":"path[data-id='county-41049']","json":"$.datasets[0].items.states[0].counties[10]","note":"Morrow, Oregon"},"benton_41":{"dom":"path[data-id='county-41003']","json":"$.datasets[0].items.states[0].counties[11]","note":"Benton, Oregon"},"lane_41":{"dom":"path[data-id='county-41039']","json":"$.datasets[0].items.states[0].counties[12]","note":"Lane, Oregon"},"jefferson_41":{"dom":"path[data-id='county-41031']","json":"$.datasets[0].items.states[0].counties[13]","note":"Jefferson, Oregon"},"yamhill_41":{"dom":"path[data-id='county-41071']","json":"$.datasets[0].items.states[0].counties[14]","note":"Yamhill, Oregon"},"deschutes_41":{"dom":"path[data-id='county-41017']","json":"$.datasets[0].items.states[0].counties[15]","note":"Deschutes, Oregon"},"clatsop_41":{"dom":"path[data-id='county-41007']","json":"$.datasets[0].items.states[0].counties[16]","note":"Clatsop, Oregon"},"klamath_41":{"dom":"path[data-id='county-41035']","json":"$.datasets[0].items.states[0].counties[17]","note":"Klamath, Oregon"},"coos_41":{"dom":"path[data-id='county-41011']","json":"$.datasets[0].items.states[0].counties[18]","note":"Coos, Oregon"},"douglas_41":{"dom":"path[data-id='county-41019']","json":"$.datasets[0].items.states[0].counties[19]","note":"Douglas, Oregon"},"clackamas_41":{"dom":"path[data-id='county-41005']","json":"$.datasets[0].items.states[0].counties[20]","note":"Clackamas, Oregon"},"polk_41":{"dom":"path[data-id='county-41053']","json":"$.datasets[0].items.states[0].counties[21]","note":"Polk, Oregon"},"multnomah_41":{"dom":"path[data-id='county-41051']","json":"$.datasets[0].items.states[0].counties[22]","note":"Multnomah, Oregon"},"lincoln_41":{"dom":"path[data-id='county-41041']","json":"$.datasets[0].items.states[0].counties[23]","note":"Lincoln, Oregon"},"wallowa_41":{"dom":"path[data-id='county-41063']","json":"$.datasets[0].items.states[0].counties[24]","note":"Wallowa, Oregon"},"malheur_41":{"dom":"path[data-id='county-41045']","json":"$.datasets[0].items.states[0].counties[25]","note":"Malheur, Oregon"},"wasco_41":{"dom":"path[data-id='county-41065']","json":"$.datasets[0].items.states[0].counties[26]","note":"Wasco, Oregon"},"hood_river_41":{"dom":"path[data-id='county-41027']","json":"$.datasets[0].items.states[0].counties[27]","note":"Hood River, Oregon"},"washington_41":{"dom":"path[data-id='county-41067']","json":"$.datasets[0].items.states[0].counties[28]","note":"Washington, Oregon"},"wheeler_41":{"dom":"path[data-id='county-41069']","json":"$.datasets[0].items.states[0].counties[29]","note":"Wheeler, Oregon"},"tillamook_41":{"dom":"path[data-id='county-41057']","json":"$.datasets[0].items.states[0].counties[30]","note":"Tillamook, Oregon"},"union_41":{"dom":"path[data-id='county-41061']","json":"$.datasets[0].items.states[0].counties[31]","note":"Union, Oregon"},"crook_41":{"dom":"path[data-id='county-41013']","json":"$.datasets[0].items.states[0].counties[32]","note":"Crook, Oregon"},"umatilla_41":{"dom":"path[data-id='county-41059']","json":"$.datasets[0].items.states[0].counties[33]","note":"Umatilla, Oregon"},"sherman_41":{"dom":"path[data-id='county-41055']","json":"$.datasets[0].items.states[0].counties[34]","note":"Sherman, Oregon"},"jackson_41":{"dom":"path[data-id='county-41029']","json":"$.datasets[0].items.states[0].counties[35]","note":"Jackson, Oregon"}},"behaviors":[{"target":{"selector":"path[data-id='county-41021']"},"enter":{"audio":"tick.mp3"}},{"target":{"selector":"path[data-id='county-41023']"},"enter":{"audio":"tick.mp3"}},{"target":{"selector":"path[data-id='county-41033']"},"enter":{"audio":"tick.mp3"}},{"target":{"selector":"path[data-id='county-41001']"},"enter":{"audio":"tick.mp3"}},{"target":{"selector":"path[data-id='county-41015']"},"enter":{"audio":"tick.mp3"}},{"target":{"selector":"path[data-id='county-41043']"},"enter":{"audio":"tick.mp3"}},{"target":{"selector":"path[data-id='county-41047']"},"enter":{"audio":"tick.mp3"}},{"target":{"selector":"path[data-id='county-41037']"},"enter":{"audio":"tick.mp3"}},{"target":{"selector":"path[data-id='county-41009']"},"enter":{"audio":"tick.mp3"}},{"target":{"selector":"path[data-id='county-41025']"},"enter":{"audio":"tick.mp3"}},{"target":{"selector":"path[data-id='county-41049']"},"enter":{"audio":"tick.mp3"}},{"target":{"selector":"path[data-id='county-41003']"},"enter":{"audio":"tick.mp3"}},{"target":{"selector":"path[data-id='county-41039']"},"enter":{"audio":"tick.mp3"}},{"target":{"selector":"path[data-id='county-41031']"},"enter":{"audio":"tick.mp3"}},{"target":{"selector":"path[data-id='county-41071']"},"enter":{"audio":"tick.mp3"}},{"target":{"selector":"path[data-id='county-41017']"},"enter":{"audio":"tick.mp3"}},{"target":{"selector":"path[data-id='county-41007']"},"enter":{"audio":"tick.mp3"}},{"target":{"selector":"path[data-id='county-41035']"},"enter":{"audio":"tick.mp3"}},{"target":{"selector":"path[data-id='county-41011']"},"enter":{"audio":"tick.mp3"}},{"target":{"selector":"path[data-id='county-41019']"},"enter":{"audio":"tick.mp3"}},{"target":{"selector":"path[data-id='county-41005']"},"enter":{"audio":"tick.mp3"}},{"target":{"selector":"path[data-id='county-41053']"},"enter":{"audio":"tick.mp3"}},{"target":{"selector":"path[data-id='county-41051']"},"enter":{"audio":"tick.mp3"}},{"target":{"selector":"path[data-id='county-41041']"},"enter":{"audio":"tick.mp3"}},{"target":{"selector":"path[data-id='county-41063']"},"enter":{"audio":"tick.mp3"}},{"target":{"selector":"path[data-id='county-41045']"},"enter":{"audio":"tick.mp3"}},{"target":{"selector":"path[data-id='county-41065']"},"enter":{"audio":"tick.mp3"}},{"target":{"selector":"path[data-id='county-41027']"},"enter":{"audio":"tick.mp3"}},{"target":{"selector":"path[data-id='county-41067']"},"enter":{"audio":"tick.mp3"}},{"target":{"selector":"path[data-id='county-41069']"},"enter":{"audio":"tick.mp3"}},{"target":{"selector":"path[data-id='county-41057']"},"enter":{"audio":"tick.mp3"}},{"target":{"selector":"path[data-id='county-41061']"},"enter":{"audio":"tick.mp3"}},{"target":{"selector":"path[data-id='county-41013']"},"enter":{"audio":"tick.mp3"}},{"target":{"selector":"path[data-id='county-41059']"},"enter":{"audio":"tick.mp3"}},{"target":{"selector":"path[data-id='county-41055']"},"enter":{"audio":"tick.mp3"}},{"target":{"selector":"path[data-id='county-41029']"},"enter":{"audio":"tick.mp3"}},{"target":{"shapes":[{"path":{"d":"M215.216,0.744L222.424,0L226.53,5.558L225.808,12.013L231.315,17.299L239.836,17.901L251.074,12.488L255.82,13.212L275.256,28.254L277.306,35.569L283.028,45.425L283.06,52.179L285.185,58.439L283.788,66.32L286.764,76.899L285.16,81.695L285.929,87.67L297.084,94.581L312.875,99.394L316.607,101.799L322.576,100.362L326.952,104.329L333.187,105.148L341.339,100.789L349.354,100.218L368.383,90.921L372.685,85.695L377.928,83.934L385.153,85.895L395.226,84.703L404.981,81.822L411.488,85.508L417.355,86.682L423.616,85.124L435.323,90.045L438.328,98.992L443.195,98.577L449.854,92.711L461.648,92.344L466.143,94.277L469.983,90.265L486.289,84.282L491.487,80.141L498.75,81.214L506.024,87.259L513.642,86.529L525.399,83.391L532.317,82.752L536.083,77.742L545.73,74.452L555.68,68.888L571.5,65.468L584.234,64.067L588.584,57.234L593.346,54.416L601.658,56.844L623.556,51.691L629.446,53.186L635.957,52.288L645.425,47.028L649.064,42.651L704.96,40.387L790.642,36.147L846.802,32.629L853.238,44.833L857.256,47.729L863.441,56.155L869.582,55.075L873.466,60.35L880.023,60.056L885.999,65.271L886.519,71.533L891.49,76.951L894.447,83.133L887.207,96.612L887.4,103.157L884.151,106.169L877.24,124.644L877.932,128.892L875.273,135.203L873.92,149.193L869.734,154.314L868.119,160.791L863.6,166.415L863.011,172.576L866.013,179.305L863.458,187.666L857.778,197.229L857.967,199.739L847.05,206.44L842.881,217.932L840.864,229.758L837.856,237.926L831.823,244.136L833.448,251.987L830.88,256.51L836.843,264.429L834.437,271.366L839.412,275.249L846.037,271.753L852.314,278.434L859.412,276.457L860.611,282.782L867.258,284.338L867.904,288.043L864.858,295.787L860.672,298.163L861.413,303.2L865.689,306.76L865.718,311.975L862.096,322.083L862.583,328.608L858.677,330.236L858.475,337.425L877.613,594.906L813.833,599.523L708.807,605.583L698.809,606.36L643.71,607.986L558.916,609.454L558.918,609.578L558.916,609.454L523.453,610L447.507,609.806L403.573,608.678L344.262,606.23L326.951,605.054L290.379,603.563L276.11,603.579L231.842,601.694L221.124,600.126L199.501,600.389L169.9,598.433L166.392,598.951L106.868,594.204L99.341,586.775L94.133,579.524L92.138,570.792L93.23,566.782L88.696,556.363L89.778,552.482L87.746,544.507L88.253,528.945L94.639,511.286L93.061,497.946L87.535,486.762L83.421,486.174L80.553,470.777L87.084,460.243L92.531,448.888L95.594,438.942L96.11,432.601L100.243,423.123L103.436,411.248L101.626,405.96L108.424,400.017L111.791,395.023L118.936,379.451L126.237,356.47L134.296,322.647L138.858,295.686L141.978,273.155L141.33,272.14L146.662,248.73L146.91,240.423L151.015,218.551L151.815,207.54L150.38,202.746L154.004,192.074L160.185,165.286L163.986,151.545L166.703,132.962L166.208,125.044L168.164,112.173L167.349,103.888L169.286,101.164L172.475,80.433L172.757,71.415L169.304,66.301L172.092,56.164L172.092,46.315L170.065,40.835L175.844,36.973L177.078,24.147L172.195,0.977L180.732,10.91L185.389,12.883L184.67,8.341L192.577,7.689L195.091,5.846L198.62,9.385L202.939,6L208.042,6.323Z","stroke":"#000000","stroke-width":3,"fill":"none"}}]},"enter":{"haptic":{"durations":[0,1000,0,1000],"repeatInterval":1000}}}]}
  </metadata>
  <style>
    .focusable-state:focus,
              .focusable-county:focus {
                outline: none;
                fill: #ffd700 !important;
              }
              .focusable-state,
              .focusable-county {
                outline: none;
                cursor: pointer;
              }
  </style>
  <rect
    x="0"
    y="0"
    width="975"
    height="610"
    fill="#ffffff"/>
  <g id="states" aria-label="States">
    <path d="M215.216,0.744L222.424,0L226.53,5.558L225.808,12.013L231.315,17.299L239.836,17.901L251.074,12.488L255.82,13.212L275.256,28.254L277.306,35.569L283.028,45.425L283.06,52.179L285.185,58.439L283.788,66.32L286.764,76.899L285.16,81.695L285.929,87.67L297.084,94.581L312.875,99.394L316.607,101.799L322.576,100.362L326.952,104.329L333.187,105.148L341.339,100.789L349.354,100.218L368.383,90.921L372.685,85.695L377.928,83.934L385.153,85.895L395.226,84.703L404.981,81.822L411.488,85.508L417.355,86.682L423.616,85.124L435.323,90.045L438.328,98.992L443.195,98.577L449.854,92.711L461.648,92.344L466.143,94.277L469.983,90.265L486.289,84.282L491.487,80.141L498.75,81.214L506.024,87.259L513.642,86.529L525.399,83.391L532.317,82.752L536.083,77.742L545.73,74.452L555.68,68.888L571.5,65.468L584.234,64.067L588.584,57.234L593.346,54.416L601.658,56.844L623.556,51.691L629.446,53.186L635.957,52.288L645.425,47.028L649.064,42.651L704.96,40.387L790.642,36.147L846.802,32.629L853.238,44.833L857.256,47.729L863.441,56.155L869.582,55.075L873.466,60.35L880.023,60.056L885.999,65.271L886.519,71.533L891.49,76.951L894.447,83.133L887.207,96.612L887.4,103.157L884.151,106.169L877.24,124.644L877.932,128.892L875.273,135.203L873.92,149.193L869.734,154.314L868.119,160.791L863.6,166.415L863.011,172.576L866.013,179.305L863.458,187.666L857.778,197.229L857.967,199.739L847.05,206.44L842.881,217.932L840.864,229.758L837.856,237.926L831.823,244.136L833.448,251.987L830.88,256.51L836.843,264.429L834.437,271.366L839.412,275.249L846.037,271.753L852.314,278.434L859.412,276.457L860.611,282.782L867.258,284.338L867.904,288.043L864.858,295.787L860.672,298.163L861.413,303.2L865.689,306.76L865.718,311.975L862.096,322.083L862.583,328.608L858.677,330.236L858.475,337.425L877.613,594.906L813.833,599.523L708.807,605.583L698.809,606.36L643.71,607.986L558.916,609.454L558.918,609.578L558.916,609.454L523.453,610L447.507,609.806L403.573,608.678L344.262,606.23L326.951,605.054L290.379,603.563L276.11,603.579L231.842,601.694L221.124,600.126L199.501,600.389L169.9,598.433L166.392,598.951L106.868,594.204L99.341,586.775L94.133,579.524L92.138,570.792L93.23,566.782L88.696,556.363L89.778,552.482L87.746,544.507L88.253,528.945L94.639,511.286L93.061,497.946L87.535,486.762L83.421,486.174L80.553,470.777L87.084,460.243L92.531,448.888L95.594,438.942L96.11,432.601L100.243,423.123L103.436,411.248L101.626,405.96L108.424,400.017L111.791,395.023L118.936,379.451L126.237,356.47L134.296,322.647L138.858,295.686L141.978,273.155L141.33,272.14L146.662,248.73L146.91,240.423L151.015,218.551L151.815,207.54L150.38,202.746L154.004,192.074L160.185,165.286L163.986,151.545L166.703,132.962L166.208,125.044L168.164,112.173L167.349,103.888L169.286,101.164L172.475,80.433L172.757,71.415L169.304,66.301L172.092,56.164L172.092,46.315L170.065,40.835L175.844,36.973L177.078,24.147L172.195,0.977L180.732,10.91L185.389,12.883L184.67,8.341L192.577,7.689L195.091,5.846L198.62,9.385L202.939,6L208.042,6.323Z"
      fill="#e6f2ff"
      stroke="#222"
      stroke-width="0.5"
      stroke-opacity="1"
      vector-effect="non-scaling-stroke"
      data-feature-type="state"
      data-id="state-41"
      data-name="Oregon"
      tabindex="-1"
      class="">
      <title>
        Oregon
      </title>
    </path>
  </g>
  <g id="counties" aria-label="Counties">
    <path d="M489.756,81.324L495.638,80.027L506.024,87.259L513.642,86.529L525.399,83.391L532.317,82.752L536.083,77.742L545.73,74.452L552.594,70.585L552.371,111.431L552.783,147.4L565.063,147.363L564.883,159.54L577.193,159.352L577.042,171.542L574.252,173.501L558.734,173.962L505.106,174.1L504.045,171.949L508.619,167.281L506.488,156.894L501.565,154.989L499.105,148.427L501.897,127.567L506.086,125.419L505.377,118.516L509.556,116.247L513.048,118.379L512.338,114.098L517.566,114.675L513.357,105.89L513.342,101.017L510.205,96.749L507.777,97.586L505.687,92.958L499.791,90.589Z"
      fill="#fff"
      stroke="#555"
      stroke-width="0.35"
      vector-effect="non-scaling-stroke"
      data-feature-type="county"
      data-id="county-41021"
      data-name="Gilliam"
      data-parent-id="state-41"
      tabindex="0"
      class="focusable-county">
      <title>
        Gilliam
      </title>
    </path>
    <path d="M586.08,183.466L636.261,182.038L699.853,179.892L707.691,181.11L708.181,184.203L715.07,179.942L721.617,183.712L726.936,183.819L728.83,186.364L729.322,196.532L722.606,197.212L720.657,201.142L724.291,210.334L723.377,213.62L716.258,213.829L706.554,220.147L701.568,220.362L703.228,225.819L719.499,230.027L723.36,236.104L716.942,244.586L718.368,252.23L712.765,255.496L711.601,261.696L714.337,266.52L708.464,272.33L705.956,281.131L707.854,283.224L732.742,281.961L734.943,312.343L698.268,313.868L674.984,313.68L675.433,326.021L590.218,328.614L589.657,279.653L588.652,207.377L586.521,207.417Z"
      fill="#fff"
      stroke="#555"
      stroke-width="0.35"
      vector-effect="non-scaling-stroke"
      data-feature-type="county"
      data-id="county-41023"
      data-name="Grant"
      data-parent-id="state-41"
      tabindex="0"
      class="focusable-county">
      <title>
        Grant
      </title>
    </path>
    <path d="M167.386,485.433L166.971,491.687L181.274,492.616L185.146,497.172L192.969,499.135L203.112,493.956L213.593,495.673L217.88,500.103L212.229,600.502L199.501,600.389L181.442,599.044L166.392,598.951L148.717,597.638L146.466,591.141L149.281,583.881L146.314,576.721L151.187,572.963L153.606,565.686L149.243,551.133L145.029,545.761L130.276,543.589L129.949,537.623L132.715,536.34L135.918,523.712L146.515,524.59L150.798,517.724L151.5,513.08L155.188,509.138L155.534,504.104L163.059,493.643Z"
      fill="#fff"
      stroke="#555"
      stroke-width="0.35"
      vector-effect="non-scaling-stroke"
      data-feature-type="county"
      data-id="county-41033"
      data-name="Josephine"
      data-parent-id="state-41"
      tabindex="0"
      class="focusable-county">
      <title>
        Josephine
      </title>
    </path>
    <path d="M726.936,183.819L729.438,176.99L734.672,175.536L737.643,171.316L750.706,177.706L753.869,177.298L759.606,172.195L761.158,168.278L765.73,167.903L770.921,172.159L772.599,176.734L793.408,175.369L793.019,163.415L821.848,161.297L869.33,158.18L863.6,166.415L863.011,172.576L866.013,179.305L863.458,187.666L860.231,191.996L857.967,199.739L847.05,206.44L842.881,217.932L840.864,229.758L837.856,237.926L831.823,244.136L833.448,251.987L830.88,256.51L836.843,264.429L833.952,269.586L807.343,271.604L806.558,259.335L798.054,255.889L795.657,252.056L757.651,254.253L753.814,256.508L751.952,262.155L748.132,264.889L746.284,271.019L740.731,275.407L740.576,279.521L732.742,281.961L707.854,283.224L705.956,281.131L708.464,272.33L714.337,266.52L711.601,261.696L712.765,255.496L718.368,252.23L716.942,244.586L723.36,236.104L719.499,230.027L703.228,225.819L701.568,220.362L706.554,220.147L716.258,213.829L723.377,213.62L724.291,210.334L720.657,201.142L722.606,197.212L729.322,196.532L728.83,186.364Z"
      fill="#fff"
      stroke="#555"
      stroke-width="0.35"
      vector-effect="non-scaling-stroke"
      data-feature-type="county"
      data-id="county-41001"
      data-name="Baker"
      data-parent-id="state-41"
      tabindex="0"
      class="focusable-county">
      <title>
        Baker
      </title>
    </path>
    <path d="M89.76,455.175L112.549,457L116.434,460.251L116.853,464.587L123.768,472.742L120.791,477.195L120.698,488.398L122.954,488.568L122.546,499.018L127.269,496.658L137.064,497.376L137.214,495.291L145.146,490.189L145.493,485.286L157.664,484.039L160.77,482.773L167.386,485.433L163.059,493.643L155.534,504.104L155.188,509.138L151.5,513.08L150.798,517.724L146.515,524.59L135.918,523.712L132.715,536.34L129.949,537.623L130.276,543.589L145.029,545.761L149.243,551.133L153.606,565.686L151.187,572.963L146.314,576.721L149.281,583.881L146.466,591.141L148.717,597.638L106.868,594.204L99.341,586.775L94.133,579.524L92.138,570.792L93.23,566.782L88.696,556.363L89.778,552.482L87.746,544.507L88.253,528.945L94.639,511.286L93.061,497.946L87.535,486.762L83.421,486.174L80.553,470.777Z"
      fill="#fff"
      stroke="#555"
      stroke-width="0.35"
      vector-effect="non-scaling-stroke"
      data-feature-type="county"
      data-id="county-41015"
      data-name="Curry"
      data-parent-id="state-41"
      tabindex="0"
      class="focusable-county">
      <title>
        Curry
      </title>
    </path>
    <path d="M241.581,215.732L242.511,211.696L252.385,213.776L256.289,221.187L260.802,216.605L262.895,217.55L276.562,207.514L284.732,207.886L288.189,210.201L295.019,208.696L306.172,214.56L324.36,214.056L327.879,215.263L332.955,223.008L342.343,219.6L352.158,225.075L375.324,226.207L374.005,235.787L375.718,238.717L374.007,249.502L369.972,252.887L369.962,266.743L369.921,281.821L372.001,285.135L320.694,284.85L320.583,287.866L314.731,289.58L295.642,287.368L288.655,281.633L277.267,277.743L266.792,277.736L266.601,281.713L263,281.418L262.239,289.6L236.224,288.381L237.87,284.721L235.166,281.19L235.416,276.612L232.132,270.634L229.307,269.511L232.045,265.679L231.527,255.515L234.124,254.091L233.883,245.398L229.62,238.175L230.111,235.794L237.375,234.028L238.797,227.606L248.903,225.858L244.465,221.896Z"
      fill="#fff"
      stroke="#555"
      stroke-width="0.35"
      vector-effect="non-scaling-stroke"
      data-feature-type="county"
      data-id="county-41043"
      data-name="Linn"
      data-parent-id="state-41"
      tabindex="0"
      class="focusable-county">
      <title>
        Linn
      </title>
    </path>
    <path d="M252.329,166.769L259.667,161.282L256.672,157.782L259.658,154.466L256.185,146.641L260.067,146.361L260.325,141.238L263.643,138.062L270.104,142.318L275.026,142.195L276.523,140.236L285.888,142.696L283.59,154.656L280.154,160.476L283.888,163.636L287.809,170.63L298.505,176.598L303.683,188.31L317.918,196.061L382.787,198.076L380.467,205.811L375.085,207.834L374.611,212.381L379.521,215.266L375.134,219.716L375.324,226.207L352.158,225.075L342.343,219.6L332.955,223.008L327.879,215.263L324.36,214.056L306.172,214.56L295.019,208.696L288.189,210.201L284.732,207.886L276.562,207.514L262.895,217.55L260.802,216.605L256.289,221.187L252.385,213.776L242.511,211.696L242.31,208.802L248.301,203.236L239.935,200.029L247.044,186.615L253.862,185.052L254.528,178.975L251.19,175.09Z"
      fill="#fff"
      stroke="#555"
      stroke-width="0.35"
      vector-effect="non-scaling-stroke"
      data-feature-type="county"
      data-id="county-41047"
      data-name="Marion"
      data-parent-id="state-41"
      tabindex="0"
      class="focusable-county">
      <title>
        Marion
      </title>
    </path>
    <path d="M419.283,377.158L517.538,378.49L566.856,378.173L567.712,439.527L563.986,439.577L564.48,476.94L563.354,476.955L563.294,501.281L624.396,499.746L626.613,587.603L627.523,608.299L570.86,608.925L558.916,609.454L558.918,609.578L558.916,609.454L523.453,610L464.47,609.823L464.419,560.395L464.941,539.404L464.813,501.956L415.768,501.016L417.204,414.049L419.057,414.079Z"
      fill="#fff"
      stroke="#555"
      stroke-width="0.35"
      vector-effect="non-scaling-stroke"
      data-feature-type="county"
      data-id="county-41037"
      data-name="Lake"
      data-parent-id="state-41"
      tabindex="0"
      class="focusable-county">
      <title>
        Lake
      </title>
    </path>
    <path d="M231.997,17.338L239.836,17.901L246.523,14.487L251.074,12.488L255.82,13.212L275.256,28.254L277.306,35.569L283.028,45.425L283.06,52.179L285.077,60.805L283.788,66.32L286.018,70.456L286.381,77.713L284.258,78.685L270.439,77.913L260.628,73.268L260.821,69.48L229.092,67.758L230.125,55.832L230.813,31.938Z"
      fill="#fff"
      stroke="#555"
      stroke-width="0.35"
      vector-effect="non-scaling-stroke"
      data-feature-type="county"
      data-id="county-41009"
      data-name="Columbia"
      data-parent-id="state-41"
      tabindex="0"
      class="focusable-county">
      <title>
        Columbia
      </title>
    </path>
    <path d="M566.856,378.173L566.317,365.776L578.799,365.708L578.195,328.825L590.218,328.614L675.433,326.021L674.984,313.68L698.268,313.868L734.943,312.343L736.606,346.475L736.058,350.268L738.786,406.301L739.335,409.939L742.36,471.775L743.853,471.579L748.376,563.106L750.667,562.992L752.294,603.223L698.809,606.36L631.376,608.199L627.523,608.299L626.613,587.603L624.396,499.746L563.294,501.281L563.354,476.955L564.48,476.94L563.986,439.577L567.712,439.527Z"
      fill="#fff"
      stroke="#555"
      stroke-width="0.35"
      vector-effect="non-scaling-stroke"
      data-feature-type="county"
      data-id="county-41025"
      data-name="Harney"
      data-parent-id="state-41"
      tabindex="0"
      class="focusable-county">
      <title>
        Harney
      </title>
    </path>
    <path d="M552.594,70.585L565.318,67.22L584.234,64.067L588.584,57.234L593.346,54.416L601.658,56.844L606.781,55.07L607.446,98.589L625.502,98.254L625.824,110.136L635.92,109.97L637.677,170.033L635.915,170.085L636.261,182.038L586.08,183.466L574.414,183.666L574.252,173.501L577.042,171.542L577.193,159.352L564.883,159.54L565.063,147.363L552.783,147.4L552.371,111.431Z"
      fill="#fff"
      stroke="#555"
      stroke-width="0.35"
      vector-effect="non-scaling-stroke"
      data-feature-type="county"
      data-id="county-41049"
      data-name="Morrow"
      data-parent-id="state-41"
      tabindex="0"
      class="focusable-county">
      <title>
        Morrow
      </title>
    </path>
    <path d="M196.776,212.995L241.581,215.732L244.465,221.896L248.903,225.858L238.797,227.606L237.375,234.028L230.111,235.794L229.62,238.175L233.883,245.398L234.124,254.091L231.527,255.515L232.045,265.679L229.307,269.511L232.132,270.634L235.416,276.612L193.978,274.418L193.933,275.141L175.632,272.984L175.938,268.412L171.974,268.266L171.891,264.153L180.164,264.585L182.454,262.683L182.407,252.419L194.596,253.204Z"
      fill="#fff"
      stroke="#555"
      stroke-width="0.35"
      vector-effect="non-scaling-stroke"
      data-feature-type="county"
      data-id="county-41003"
      data-name="Benton"
      data-parent-id="state-41"
      tabindex="0"
      class="focusable-county">
      <title>
        Benton
      </title>
    </path>
    <path d="M141.365,271.658L175.632,272.984L193.933,275.141L193.978,274.418L235.416,276.612L235.166,281.19L237.87,284.721L236.224,288.381L262.239,289.6L263,281.418L266.601,281.713L266.792,277.736L277.267,277.743L288.655,281.633L295.642,287.368L314.731,289.58L320.583,287.866L320.694,284.85L372.001,285.135L375.146,289.322L376.488,307.851L373.046,314.66L369.719,316.753L370.714,320.411L366.9,326.852L365.606,334.211L362.338,333.636L354.433,341.778L355.511,354.922L352.517,369.299L354.579,374.227L350.851,375.819L337.343,383.552L335.327,388.724L337.428,392.205L336.795,400.232L299.848,398.636L273.959,398.133L274.653,382.922L237.057,381.796L237.555,372.44L234.615,372.282L235.568,347.754L214.372,346.445L214.612,342.327L202.203,341.467L202.38,338.562L196.534,338.325L196.872,332.878L191.405,332.537L191.967,329.415L187.605,329.017L188.231,324.928L183.873,324.527L179.713,321.1L167.361,320.153L159.248,326.516L156.726,325.975L154.184,330.899L132.706,329.211L135.519,316.059L140.287,286.222Z"
      fill="#fff"
      stroke="#555"
      stroke-width="0.35"
      vector-effect="non-scaling-stroke"
      data-feature-type="county"
      data-id="county-41039"
      data-name="Lane"
      data-parent-id="state-41"
      tabindex="0"
      class="focusable-county">
      <title>
        Lane
      </title>
    </path>
    <path d="M375.324,226.207L375.134,219.716L379.521,215.266L374.611,212.381L375.085,207.834L380.467,205.811L383.294,206.48L446.168,207.942L517.236,208.431L514.05,212.16L515.845,216.833L515.945,244.464L471.906,244.542L471.839,256.576L455.687,256.459L455.579,268.625L443.706,268.385L369.962,266.743L369.972,252.887L374.007,249.502L375.718,238.717L374.005,235.787Z"
      fill="#fff"
      stroke="#555"
      stroke-width="0.35"
      vector-effect="non-scaling-stroke"
      data-feature-type="county"
      data-id="county-41031"
      data-name="Jefferson"
      data-parent-id="state-41"
      tabindex="0"
      class="focusable-county">
      <title>
        Jefferson
      </title>
    </path>
    <path d="M216.232,114.944L247.939,116.62L250.165,120.79L258.187,121.206L263.72,129.474L268.256,129.817L269.463,133.812L273.654,134.133L273.274,142.112L275.026,142.195L270.104,142.318L263.643,138.062L260.325,141.238L260.067,146.361L256.185,146.641L259.658,154.466L256.672,157.782L259.667,161.282L252.329,166.769L210.436,164.411L187.932,162.752L182.303,162.38L183.247,142.94L214.784,144.937Z"
      fill="#fff"
      stroke="#555"
      stroke-width="0.35"
      vector-effect="non-scaling-stroke"
      data-feature-type="county"
      data-id="county-41071"
      data-name="Yamhill"
      data-parent-id="state-41"
      tabindex="0"
      class="focusable-county">
      <title>
        Yamhill
      </title>
    </path>
    <path d="M372.001,285.135L369.921,281.821L369.962,266.743L443.706,268.385L443.431,292.633L444.028,303.878L455.621,304.599L455.405,329.045L479.451,329.683L479.404,341.804L517.03,341.685L517.076,353.941L529.528,353.878L529.605,366.146L566.317,365.776L566.856,378.173L517.538,378.49L419.283,377.158L350.851,375.819L354.579,374.227L352.517,369.299L355.511,354.922L354.433,341.778L362.338,333.636L365.606,334.211L366.9,326.852L370.714,320.411L369.719,316.753L373.046,314.66L376.488,307.851L375.146,289.322Z"
      fill="#fff"
      stroke="#555"
      stroke-width="0.35"
      vector-effect="non-scaling-stroke"
      data-feature-type="county"
      data-id="county-41017"
      data-name="Deschutes"
      data-parent-id="state-41"
      tabindex="0"
      class="focusable-county">
      <title>
        Deschutes
      </title>
    </path>
    <path d="M215.216,0.744L222.424,0L226.53,5.558L225.808,12.013L231.997,17.338L230.813,31.938L230.125,55.832L229.092,67.758L194.567,66.469L194.66,65.05L170.89,63.442L172.092,46.315L170.065,40.835L175.844,36.973L177.078,24.147L172.195,0.977L180.732,10.91L185.389,12.883L184.67,8.341L192.577,7.689L195.091,5.846L198.62,9.385L202.939,6L208.042,6.323Z"
      fill="#fff"
      stroke="#555"
      stroke-width="0.35"
      vector-effect="non-scaling-stroke"
      data-feature-type="county"
      data-id="county-41007"
      data-name="Clatsop"
      data-parent-id="state-41"
      tabindex="0"
      class="focusable-county">
      <title>
        Clatsop
      </title>
    </path>
    <path d="M318.999,462.731L320.861,452.623L338.793,453.232L342.16,441.337L345.309,436.051L345.054,432.252L351.935,426.225L348.713,422.095L347.905,412.055L343.669,405.211L336.795,400.232L337.428,392.205L335.327,388.724L337.343,383.552L350.851,375.819L419.283,377.158L419.057,414.079L417.204,414.049L415.768,501.016L464.813,501.956L464.941,539.404L464.419,560.395L464.47,609.823L447.507,609.806L403.573,608.678L344.262,606.23L313.089,604.567L314.948,564.098Z"
      fill="#fff"
      stroke="#555"
      stroke-width="0.35"
      vector-effect="non-scaling-stroke"
      data-feature-type="county"
      data-id="county-41035"
      data-name="Klamath"
      data-parent-id="state-41"
      tabindex="0"
      class="focusable-county">
      <title>
        Klamath
      </title>
    </path>
    <path d="M123.794,364.328L158.987,367.26L158.078,380.369L163.974,380.653L163.154,392.683L168.688,393.057L167.038,417.646L173.341,418.065L171.741,442.342L165.746,442.434L164.917,454.774L158.567,454.343L156.881,478.939L157.664,484.039L145.493,485.286L145.146,490.189L137.214,495.291L137.064,497.376L127.269,496.658L122.546,499.018L122.954,488.568L120.698,488.398L120.791,477.195L123.768,472.742L116.853,464.587L116.434,460.251L112.549,457L89.76,455.175L95.594,438.942L96.11,432.601L100.243,423.123L103.436,411.248L101.626,405.96L108.424,400.017L111.791,395.023L118.936,379.451Z"
      fill="#fff"
      stroke="#555"
      stroke-width="0.35"
      vector-effect="non-scaling-stroke"
      data-feature-type="county"
      data-id="county-41011"
      data-name="Coos"
      data-parent-id="state-41"
      tabindex="0"
      class="focusable-county">
      <title>
        Coos
      </title>
    </path>
    <path d="M132.706,329.211L154.184,330.899L156.726,325.975L159.248,326.516L167.361,320.153L179.713,321.1L183.873,324.527L188.231,324.928L187.605,329.017L191.967,329.415L191.405,332.537L196.872,332.878L196.534,338.325L202.38,338.562L202.203,341.467L214.612,342.327L214.372,346.445L235.568,347.754L234.615,372.282L237.555,372.44L237.057,381.796L274.653,382.922L273.959,398.133L299.848,398.636L336.795,400.232L343.669,405.211L347.905,412.055L348.713,422.095L351.935,426.225L345.054,432.252L345.309,436.051L342.16,441.337L338.793,453.232L320.861,452.623L318.999,462.731L306.648,462.27L299.962,470.106L289.837,469.815L289.749,471.898L277.097,477.616L270.34,485.546L266.62,484.514L264.024,491.649L247.814,491.353L241.244,494.342L226.59,492.95L217.88,500.103L213.593,495.673L203.112,493.956L192.969,499.135L185.146,497.172L181.274,492.616L166.971,491.687L167.386,485.433L160.77,482.773L157.664,484.039L156.881,478.939L158.567,454.343L164.917,454.774L165.746,442.434L171.741,442.342L173.341,418.065L167.038,417.646L168.688,393.057L163.154,392.683L163.974,380.653L158.078,380.369L158.987,367.26L123.794,364.328Z"
      fill="#fff"
      stroke="#555"
      stroke-width="0.35"
      vector-effect="non-scaling-stroke"
      data-feature-type="county"
      data-id="county-41019"
      data-name="Douglas"
      data-parent-id="state-41"
      tabindex="0"
      class="focusable-county">
      <title>
        Douglas
      </title>
    </path>
    <path d="M273.654,134.133L275.944,130.186L285.638,132.661L286.271,118.622L295.684,119.037L296.549,115.143L376.355,117.89L380.336,126.088L387.924,130.323L387.088,136.143L389.428,140.968L387.547,146.411L388.859,150.38L382.459,153.57L387.44,165.993L390.266,165.7L390.803,173.124L384.712,176.929L378.708,176.901L376.145,180.425L377.678,189.682L384.625,195.364L382.787,198.076L317.918,196.061L303.683,188.31L298.505,176.598L287.809,170.63L283.888,163.636L280.154,160.476L283.59,154.656L285.888,142.696L276.523,140.236L275.026,142.195L273.274,142.112Z"
      fill="#fff"
      stroke="#555"
      stroke-width="0.35"
      vector-effect="non-scaling-stroke"
      data-feature-type="county"
      data-id="county-41005"
      data-name="Clackamas"
      data-parent-id="state-41"
      tabindex="0"
      class="focusable-county">
      <title>
        Clackamas
      </title>
    </path>
    <path d="M187.643,167.164L187.932,162.752L210.436,164.411L252.329,166.769L251.19,175.09L254.528,178.975L253.862,185.052L247.044,186.615L239.935,200.029L248.301,203.236L242.31,208.802L242.511,211.696L241.581,215.732L196.776,212.995L186.822,212.356L184.854,209.703Z"
      fill="#fff"
      stroke="#555"
      stroke-width="0.35"
      vector-effect="non-scaling-stroke"
      data-feature-type="county"
      data-id="county-41053"
      data-name="Polk"
      data-parent-id="state-41"
      tabindex="0"
      class="focusable-county">
      <title>
        Polk
      </title>
    </path>
    <path d="M270.439,77.913L284.258,78.685L286.381,77.713L285.929,87.67L297.084,94.581L312.875,99.394L316.607,101.799L322.576,100.362L326.952,104.329L334.946,104.614L341.339,100.789L349.354,100.218L366.976,91.595L367.272,105.866L369.234,110.44L376.355,117.89L296.549,115.143L295.684,119.037L286.271,118.622L286.79,107.095L281.175,100.412L277.45,98.216L269.907,88.818Z"
      fill="#fff"
      stroke="#555"
      stroke-width="0.35"
      vector-effect="non-scaling-stroke"
      data-feature-type="county"
      data-id="county-41051"
      data-name="Multnomah"
      data-parent-id="state-41"
      tabindex="0"
      class="focusable-county">
      <title>
        Multnomah
      </title>
    </path>
    <path d="M160.185,165.286L187.643,167.164L184.854,209.703L186.822,212.356L196.776,212.995L194.596,253.204L182.407,252.419L182.454,262.683L180.164,264.585L171.891,264.153L171.974,268.266L175.938,268.412L175.632,272.984L141.365,271.658L146.662,248.73L146.91,240.423L151.015,218.551L151.815,207.54L150.38,202.746L154.004,192.074Z"
      fill="#fff"
      stroke="#555"
      stroke-width="0.35"
      vector-effect="non-scaling-stroke"
      data-feature-type="county"
      data-id="county-41041"
      data-name="Lincoln"
      data-parent-id="state-41"
      tabindex="0"
      class="focusable-county">
      <title>
        Lincoln
      </title>
    </path>
    <path d="M745.404,38.415L781.388,36.601L793.039,35.995L846.802,32.629L853.238,44.833L859.915,50.847L863.441,56.155L869.582,55.075L873.466,60.35L880.023,60.056L885.999,65.271L886.519,71.533L891.49,76.951L894.447,83.133L887.207,96.612L887.4,103.157L884.151,106.169L877.24,124.644L876.707,131.142L873.92,149.193L869.734,154.314L869.33,158.18L821.848,161.297L821.387,149.36L800.687,150.726L800.307,144.772L796.101,145.038L795.242,136.967L788.935,131.507L788.693,127.583L782.771,128.182L780.782,124.244L780.263,115.569L778.173,115.694L777.461,103.702L773.298,104.066L772.473,89.951L770.389,84.008L766.007,80.219L765.351,68.734L769.144,68.516L768.445,56.452L747.116,57.638L746.428,57.675Z"
      fill="#fff"
      stroke="#555"
      stroke-width="0.35"
      vector-effect="non-scaling-stroke"
      data-feature-type="county"
      data-id="county-41063"
      data-name="Wallowa"
      data-parent-id="state-41"
      tabindex="0"
      class="focusable-county">
      <title>
        Wallowa
      </title>
    </path>
    <path d="M732.742,281.961L740.576,279.521L740.731,275.407L746.284,271.019L748.132,264.889L751.952,262.155L753.814,256.508L757.651,254.253L795.657,252.056L798.054,255.889L806.558,259.335L807.343,271.604L833.952,269.586L839.412,275.249L846.037,271.753L852.314,278.434L859.412,276.457L860.611,282.782L867.258,284.338L867.904,288.043L864.858,295.787L860.672,298.163L861.413,303.2L865.689,306.76L865.718,311.975L862.096,322.083L862.466,327.037L858.677,330.236L858.475,337.425L859.808,355.462L877.613,594.906L813.833,599.523L752.294,603.223L750.667,562.992L748.376,563.106L743.853,471.579L742.36,471.775L739.335,409.939L738.786,406.301L736.058,350.268L736.606,346.475L734.943,312.343Z"
      fill="#fff"
      stroke="#555"
      stroke-width="0.35"
      vector-effect="non-scaling-stroke"
      data-feature-type="county"
      data-id="county-41045"
      data-name="Malheur"
      data-parent-id="state-41"
      tabindex="0"
      class="focusable-county">
      <title>
        Malheur
      </title>
    </path>
    <path d="M387.547,146.411L408.592,146.858L409.282,110.537L413.111,110.608L413.557,86.021L423.616,85.124L435.323,90.045L438.328,98.992L443.195,98.577L449.854,92.711L461.648,92.344L464.406,94.502L466.088,102.236L465.019,105.913L467.772,110.331L472.984,112.146L469.805,119.505L468.717,126.164L465.525,133.052L462.011,135.171L459.869,140.398L457.782,138.593L453.539,142.846L453.448,152.509L456.931,155.763L468.178,155.849L477.997,160.916L482.556,165.234L482.534,171.926L504.045,171.949L505.106,174.1L506.891,186.298L505.837,190.37L510.813,198.264L509.049,202.223L517.236,208.431L446.168,207.942L383.294,206.48L380.467,205.811L382.787,198.076L384.625,195.364L377.678,189.682L376.145,180.425L378.708,176.901L384.712,176.929L390.803,173.124L390.266,165.7L387.44,165.993L382.459,153.57L388.859,150.38Z"
      fill="#fff"
      stroke="#555"
      stroke-width="0.35"
      vector-effect="non-scaling-stroke"
      data-feature-type="county"
      data-id="county-41065"
      data-name="Wasco"
      data-parent-id="state-41"
      tabindex="0"
      class="focusable-county">
      <title>
        Wasco
      </title>
    </path>
    <path d="M366.976,91.595L372.685,85.695L377.928,83.934L385.153,85.895L395.226,84.703L405.668,82.073L413.557,86.021L413.111,110.608L409.282,110.537L408.592,146.858L387.547,146.411L389.428,140.968L387.088,136.143L387.924,130.323L380.336,126.088L376.355,117.89L369.234,110.44L367.272,105.866Z"
      fill="#fff"
      stroke="#555"
      stroke-width="0.35"
      vector-effect="non-scaling-stroke"
      data-feature-type="county"
      data-id="county-41027"
      data-name="Hood River"
      data-parent-id="state-41"
      tabindex="0"
      class="focusable-county">
      <title>
        Hood River
      </title>
    </path>
    <path d="M229.092,67.758L260.821,69.48L260.628,73.268L270.439,77.913L269.907,88.818L277.45,98.216L281.175,100.412L286.79,107.095L286.271,118.622L285.638,132.661L275.944,130.186L273.654,134.133L269.463,133.812L268.256,129.817L263.72,129.474L258.187,121.206L250.165,120.79L247.939,116.62L216.232,114.944L219.397,102.861L227.266,99.393L227.499,95.36L231.661,95.598L233.963,91.803L229.804,91.566L226.219,87.434L222.065,87.191L216.785,76.772L228.532,77.464Z"
      fill="#fff"
      stroke="#555"
      stroke-width="0.35"
      vector-effect="non-scaling-stroke"
      data-feature-type="county"
      data-id="county-41067"
      data-name="Washington"
      data-parent-id="state-41"
      tabindex="0"
      class="focusable-county">
      <title>
        Washington
      </title>
    </path>
    <path d="M505.106,174.1L558.734,173.962L574.252,173.501L574.414,183.666L586.08,183.466L586.521,207.417L588.652,207.377L589.657,279.653L565.132,280.054L564.973,268.479L552.737,268.511L552.66,261.644L516.01,262.278L515.945,244.464L515.845,216.833L514.05,212.16L517.236,208.431L509.049,202.223L510.813,198.264L505.837,190.37L506.891,186.298Z"
      fill="#fff"
      stroke="#555"
      stroke-width="0.35"
      vector-effect="non-scaling-stroke"
      data-feature-type="county"
      data-id="county-41069"
      data-name="Wheeler"
      data-parent-id="state-41"
      tabindex="0"
      class="focusable-county">
      <title>
        Wheeler
      </title>
    </path>
    <path d="M170.89,63.442L194.66,65.05L194.567,66.469L229.092,67.758L228.532,77.464L216.785,76.772L222.065,87.191L226.219,87.434L229.804,91.566L233.963,91.803L231.661,95.598L227.499,95.36L227.266,99.393L219.397,102.861L216.232,114.944L214.784,144.937L183.247,142.94L182.303,162.38L187.932,162.752L187.643,167.164L160.185,165.286L163.986,151.545L166.703,132.962L166.208,125.044L168.164,112.173L167.349,103.888L169.286,101.164L172.475,80.433L172.757,71.415L169.304,66.301Z"
      fill="#fff"
      stroke="#555"
      stroke-width="0.35"
      vector-effect="non-scaling-stroke"
      data-feature-type="county"
      data-id="county-41057"
      data-name="Tillamook"
      data-parent-id="state-41"
      tabindex="0"
      class="focusable-county">
      <title>
        Tillamook
      </title>
    </path>
    <path d="M747.116,57.638L768.445,56.452L769.144,68.516L765.351,68.734L766.007,80.219L770.389,84.008L772.473,89.951L773.298,104.066L777.461,103.702L778.173,115.694L780.263,115.569L780.782,124.244L782.771,128.182L788.693,127.583L788.935,131.507L795.242,136.967L796.101,145.038L800.307,144.772L800.687,150.726L821.387,149.36L821.848,161.297L793.019,163.415L793.408,175.369L772.599,176.734L770.921,172.159L765.73,167.903L761.158,168.278L759.606,172.195L753.869,177.298L750.706,177.706L737.643,171.316L734.672,175.536L729.438,176.99L726.936,183.819L721.617,183.712L715.07,179.942L708.181,184.203L707.691,181.11L699.853,179.892L699.353,168.064L696.182,168.197L695.863,152.073L684.978,152.514L684.645,144.049L680.789,144.2L680.321,132.049L688.391,132.447L688.309,130.423L706.482,129.657L706.031,119.426L728.354,118.628L728.059,112.567L736.066,112.169L734.199,82.047L739.393,81.902L738.79,70.176L740.203,64.051L747.438,63.671Z"
      fill="#fff"
      stroke="#555"
      stroke-width="0.35"
      vector-effect="non-scaling-stroke"
      data-feature-type="county"
      data-id="county-41061"
      data-name="Union"
      data-parent-id="state-41"
      tabindex="0"
      class="focusable-county">
      <title>
        Union
      </title>
    </path>
    <path d="M443.706,268.385L455.579,268.625L455.687,256.459L471.839,256.576L471.906,244.542L515.945,244.464L516.01,262.278L552.66,261.644L552.737,268.511L564.973,268.479L565.132,280.054L589.657,279.653L590.218,328.614L578.195,328.825L578.799,365.708L566.317,365.776L529.605,366.146L529.528,353.878L517.076,353.941L517.03,341.685L479.404,341.804L479.451,329.683L455.405,329.045L455.621,304.599L444.028,303.878L443.431,292.633Z"
      fill="#fff"
      stroke="#555"
      stroke-width="0.35"
      vector-effect="non-scaling-stroke"
      data-feature-type="county"
      data-id="county-41013"
      data-name="Crook"
      data-parent-id="state-41"
      tabindex="0"
      class="focusable-county">
      <title>
        Crook
      </title>
    </path>
    <path d="M606.781,55.07L623.556,51.691L629.446,53.186L635.957,52.288L645.425,47.028L649.064,42.651L743.691,38.506L745.404,38.415L746.428,57.675L747.116,57.638L747.438,63.671L740.203,64.051L738.79,70.176L739.393,81.902L734.199,82.047L736.066,112.169L728.059,112.567L728.354,118.628L706.031,119.426L706.482,129.657L688.309,130.423L688.391,132.447L680.321,132.049L680.789,144.2L684.645,144.049L684.978,152.514L695.863,152.073L696.182,168.197L699.353,168.064L699.853,179.892L636.261,182.038L635.915,170.085L637.677,170.033L635.92,109.97L625.824,110.136L625.502,98.254L607.446,98.589Z"
      fill="#fff"
      stroke="#555"
      stroke-width="0.35"
      vector-effect="non-scaling-stroke"
      data-feature-type="county"
      data-id="county-41059"
      data-name="Umatilla"
      data-parent-id="state-41"
      tabindex="0"
      class="focusable-county">
      <title>
        Umatilla
      </title>
    </path>
    <path d="M464.406,94.502L469.983,90.265L486.289,84.282L489.756,81.324L499.791,90.589L505.687,92.958L507.777,97.586L510.205,96.749L513.342,101.017L513.357,105.89L517.566,114.675L512.338,114.098L513.048,118.379L509.556,116.247L505.377,118.516L506.086,125.419L501.897,127.567L499.105,148.427L501.565,154.989L506.488,156.894L508.619,167.281L504.045,171.949L482.534,171.926L482.556,165.234L477.997,160.916L468.178,155.849L456.931,155.763L453.448,152.509L453.539,142.846L457.782,138.593L459.869,140.398L462.011,135.171L465.525,133.052L468.717,126.164L469.805,119.505L472.984,112.146L467.772,110.331L465.019,105.913L466.088,102.236Z"
      fill="#fff"
      stroke="#555"
      stroke-width="0.35"
      vector-effect="non-scaling-stroke"
      data-feature-type="county"
      data-id="county-41055"
      data-name="Sherman"
      data-parent-id="state-41"
      tabindex="0"
      class="focusable-county">
      <title>
        Sherman
      </title>
    </path>
    <path d="M212.229,600.502L217.88,500.103L226.59,492.95L241.244,494.342L247.814,491.353L264.024,491.649L266.62,484.514L270.34,485.546L277.097,477.616L289.749,471.898L289.837,469.815L299.962,470.106L306.648,462.27L318.999,462.731L314.948,564.098L313.089,604.567L290.379,603.563L276.11,603.579L231.842,601.694L221.124,600.126Z"
      fill="#fff"
      stroke="#555"
      stroke-width="0.35"
      vector-effect="non-scaling-stroke"
      data-feature-type="county"
      data-id="county-41029"
      data-name="Jackson"
      data-parent-id="state-41"
      tabindex="0"
      class="focusable-county">
      <title>
        Jackson
      </title>
    </path>
  </g>
</svg>